<svg viewBox="0 0 120 120" xmlns="http://www.w3.org/2000/svg">
  <defs>
    <linearGradient id="b" x1="0%" y1="0%" x2="100%" y2="100%">
      <stop offset="0%" stop-color="#20e0c5"/>
      <stop offset="50%" stop-color="#08c4ac"/>
      <stop offset="100%" stop-color="#049e8d"/>
    </linearGradient>
    <radialGradient id="s" cx="35%" cy="30%" r="50%">
      <stop offset="0%" stop-color="white" stop-opacity="0.25"/>
      <stop offset="100%" stop-color="white" stop-opacity="0"/>
    </radialGradient>
    <radialGradient id="c" cx="50%" cy="50%" r="50%">
      <stop offset="0%" stop-color="#ff9ec6" stop-opacity="0.4"/>
      <stop offset="100%" stop-color="#ff9ec6" stop-opacity="0"/>
    </radialGradient>
  </defs>
  <!-- Ears -->
  <ellipse cx="38" cy="34" rx="8" ry="10" fill="#08c4ac" transform="rotate(-10,38,44)"/>
  <ellipse cx="82" cy="34" rx="8" ry="10" fill="#08c4ac" transform="rotate(10,82,44)"/>
  <!-- Body -->
  <ellipse cx="60" cy="62" rx="36" ry="34" fill="url(#b)"/>
  <ellipse cx="60" cy="62" rx="36" ry="34" fill="url(#s)"/>
  <!-- Eyes -->
  <ellipse cx="48" cy="56" rx="9" ry="6" fill="white"/>
  <ellipse cx="72" cy="56" rx="9" ry="6" fill="white"/>
  <circle cx="48" cy="57" r="2.8" fill="#1a1a2e"/>
  <circle cx="72" cy="57" r="2.8" fill="#1a1a2e"/>
  <circle cx="46" cy="55" r="1.2" fill="white"/>
  <circle cx="70" cy="55" r="1.2" fill="white"/>
  <!-- Cheeks -->
  <ellipse cx="36" cy="68" rx="7" ry="5" fill="url(#c)" opacity="0.5"/>
  <ellipse cx="84" cy="68" rx="7" ry="5" fill="url(#c)" opacity="0.5"/>
  <!-- Mouth -->
  <path d="M 53 72 Q 60 78 67 72" fill="none" stroke="#047a6e" stroke-width="1.8" stroke-linecap="round"/>
  <!-- Arms -->
  <ellipse cx="26" cy="68" rx="6" ry="4" fill="#08c4ac" transform="rotate(-10,32,68)"/>
  <ellipse cx="94" cy="68" rx="6" ry="4" fill="#08c4ac" transform="rotate(10,88,68)"/>
  <!-- Feet -->
  <ellipse cx="48" cy="94" rx="10" ry="5" fill="#07b39b"/>
  <ellipse cx="72" cy="94" rx="10" ry="5" fill="#07b39b"/>
</svg>
